<?xml version="1.0" encoding="utf-8"?>
<!-- Generator: Adobe Illustrator 24.3.0, SVG Export Plug-In . SVG Version: 6.00 Build 0)  -->
<svg version="1.1" id="Ebene_1" xmlns="http://www.w3.org/2000/svg" xmlns:xlink="http://www.w3.org/1999/xlink" x="0px" y="0px"
	 width="142px" height="35.7px" viewBox="0 0 142 35.7" style="enable-background:new 0 0 142 35.7;" xml:space="preserve">
<style type="text/css">
	.st0{fill:#FFFFFF;}
</style>
<path class="st0" d="M12.2,34.6c0-0.6-0.1-1.4-0.1-2c0-7,0-14,0-21c0-0.6,0-1.2,0-1.9c-1.2,0.2-1.5,0.8-1.8,1.7
	C9.9,12.8,9,13.6,7.7,14c-0.2,0.1-0.4,0.2-0.6,0.3c-1.3,0.7-1.5,2-0.6,3.2c0.3,0.4,0.7,0.7,1.2,1c1.6,1,2.6,2.3,2.7,4.2
	c0,0.3,0.1,0.7,0.3,1.1c0.2,0.6,0.5,1.3,0.6,1.9c0.1,0.7,0,1.5,0,2.2c0,0.6,0,1.3,0,1.8c-0.1,0-0.3,0-0.4,0
	c-0.2-0.8-0.5-1.8-0.7-2.6c-0.5-2.7-1.9-5.1-4.1-6.9c-0.5-0.4-0.9-1-1.5-1.4c-1.8-1.3-3-3-3.7-5.2v-0.7c1.3-3.8,4.4-5.8,7.5-8.1
	c2.4,3.9,6.5,5.8,10,8.5c2.1,1.6,4.1,3.3,5.7,5.3c2.8,3.5,2.4,7.8-0.3,10.9c-2.3,2.6-5.4,3.9-8.6,4.8"/>
<path class="st0" d="M21.4,14.4c-2.8-2-5.6-3.9-8.3-5.8V4.1C17.2,3.2,22.8,7.7,21.4,14.4z"/>
<path class="st0" d="M12.2,0.9v6.7C11,6.9,10.2,5.9,9.6,5C9,4,8.7,3,9.3,2C9.9,1.1,10.8,0.6,12.2,0.9z"/>
<path class="st0" d="M10.1,29.8c-3.8-1.7-5.1-5-3.5-7.8C9,24,9,27.1,10.1,29.8z"/>
<g>
	<path class="st0" d="M44.3,19.9c0,1.1-0.2,2-0.5,2.9s-0.7,1.6-1.3,2.3s-1.3,1.1-2.1,1.5c-0.8,0.3-1.8,0.5-2.9,0.5
		c-0.9,0-1.7-0.1-2.5-0.2c-0.7-0.1-1.5-0.3-2.2-0.5V8.3H36v5.4c0,0.4,0,0.8-0.1,1.3c0,0.5-0.1,0.9-0.2,1.2l0,0
		c0.3-0.7,0.8-1.2,1.5-1.7c0.7-0.4,1.4-0.6,2.3-0.6c1.5,0,2.7,0.5,3.5,1.5C43.9,16.6,44.3,18,44.3,19.9z M40.9,20.2
		c0-2.4-0.7-3.5-2.2-3.5c-0.4,0-0.8,0.1-1.1,0.3c-0.3,0.2-0.6,0.5-0.9,0.9s-0.4,0.8-0.5,1.3s-0.2,1-0.2,1.5v3.5
		c0.5,0.2,1,0.2,1.7,0.2c0.5,0,0.9-0.1,1.3-0.2c0.4-0.2,0.7-0.4,1-0.7c0.3-0.3,0.5-0.8,0.7-1.3C40.8,21.7,40.9,21,40.9,20.2z"/>
	<path class="st0" d="M46.4,26.8V8.3h3.2v18.5H46.4z"/>
	<path class="st0" d="M60.6,26.8c0-0.3,0-0.7,0-1.1s0.1-0.8,0.1-1.2l0,0c-0.4,0.7-0.9,1.3-1.7,1.8c-0.7,0.5-1.6,0.7-2.6,0.7
		c-0.7,0-1.3-0.1-1.8-0.3c-0.5-0.2-0.9-0.5-1.2-0.9s-0.5-0.8-0.6-1.3s-0.2-1-0.2-1.6v-8.8h3.2v8.1c0,0.6,0.1,1.2,0.3,1.5
		c0.2,0.4,0.6,0.6,1.2,0.6c0.4,0,0.8-0.1,1.2-0.3s0.7-0.5,0.9-0.9s0.5-0.8,0.6-1.3c0.2-0.5,0.2-1,0.2-1.6v-6.1h3.2v12.6L60.6,26.8
		L60.6,26.8z"/>
	<path class="st0" d="M76.9,19.3c0,0.4,0,0.7,0,1s-0.1,0.5-0.1,0.9H69c0,2.3,1.1,3.4,3.5,3.4c1.2,0,2.5-0.2,3.7-0.7l0.4,2.5
		c-0.7,0.2-1.4,0.4-2.2,0.6c-0.8,0.1-1.6,0.2-2.4,0.2c-2,0-3.6-0.5-4.6-1.6c-1.1-1.1-1.6-2.7-1.6-4.8c0-0.9,0.1-1.8,0.4-2.6
		c0.3-0.8,0.7-1.5,1.2-2.1s1.1-1.1,1.9-1.4s1.6-0.5,2.5-0.5s1.7,0.1,2.4,0.4c0.7,0.3,1.2,0.7,1.7,1.2c0.4,0.5,0.8,1.1,0.9,1.8
		C76.8,18,76.9,18.7,76.9,19.3z M73.6,19c0-0.8-0.2-1.5-0.5-2c-0.4-0.5-0.9-0.7-1.6-0.7s-1.2,0.2-1.7,0.7c-0.4,0.5-0.7,1.1-0.8,1.9
		h4.6V19z"/>
	<path class="st0" d="M95,26.8h-1.2l-5.3-9.4c-0.4-0.7-0.7-1.4-0.9-1.8c-0.2-0.5-0.4-1-0.6-1.5c0,0.4,0,0.8,0.1,1.3s0,1.1,0.1,1.7
		c0,0.6,0,1.3,0,2.2c0,0.9,0,1.8,0,2.9v4.6H84V9.7h3.2h1.2l5.2,9.2c0.3,0.5,0.6,1.1,0.8,1.6c0.3,0.5,0.5,1.1,0.8,1.8
		c0-0.4-0.1-1.1-0.1-2.1s0-1.7-0.1-2.3c0-0.6,0-1,0-1.3s0-0.8,0-1.6V9.7h3.2v17.1H95z"/>
	<path class="st0" d="M111.5,19.3c0,0.4,0,0.7,0,1s-0.1,0.5-0.1,0.9h-7.8c0,2.3,1.1,3.4,3.5,3.4c1.2,0,2.5-0.2,3.7-0.7l0.4,2.5
		c-0.7,0.2-1.4,0.4-2.2,0.6c-0.8,0.1-1.6,0.2-2.4,0.2c-2,0-3.6-0.5-4.6-1.6c-1.1-1.1-1.6-2.7-1.6-4.8c0-0.9,0.1-1.8,0.4-2.6
		c0.3-0.8,0.7-1.5,1.2-2.1s1.1-1.1,1.9-1.4s1.6-0.5,2.5-0.5s1.7,0.1,2.4,0.4c0.7,0.3,1.2,0.7,1.7,1.2c0.4,0.5,0.8,1.1,0.9,1.8
		C111.5,18,111.5,18.7,111.5,19.3z M108.3,19c0-0.8-0.2-1.5-0.5-2c-0.4-0.5-0.9-0.7-1.6-0.7s-1.2,0.2-1.7,0.7
		c-0.4,0.5-0.7,1.1-0.8,1.9h4.6V19z"/>
	<path class="st0" d="M127.9,26.8h-3.5l-1.8-5.6c-0.1-0.4-0.3-0.9-0.4-1.3s-0.2-0.9-0.3-1.5l0,0c-0.1,0.6-0.3,1.1-0.4,1.6
		s-0.3,1-0.5,1.5l-1.6,5.2H116l-3.8-12.6h3.5L117,19c0.2,0.6,0.3,1.3,0.5,1.9s0.3,1.3,0.5,1.9l0,0c0.1-0.7,0.3-1.4,0.4-1.9
		s0.3-1.2,0.5-1.7l1.5-4.9h3.1l1.5,4.8c0.2,0.7,0.4,1.4,0.6,2s0.3,1.2,0.4,1.8h0.1c0.1-0.6,0.3-1.3,0.4-1.8s0.3-1.2,0.5-1.8l1.4-4.9
		h3.3L127.9,26.8z"/>
	<path class="st0" d="M140.7,22.9c0,0.6-0.1,1.2-0.4,1.7c-0.3,0.5-0.6,1-1.1,1.3c-0.5,0.4-1.1,0.6-1.8,0.8c-0.7,0.2-1.4,0.3-2.3,0.3
		c-0.5,0-1,0-1.5-0.1s-0.9-0.1-1.3-0.2l0.2-2.7c0.4,0.2,0.8,0.3,1.3,0.4s0.9,0.1,1.4,0.1c0.6,0,1.1-0.1,1.5-0.4
		c0.4-0.2,0.6-0.6,0.6-1s-0.1-0.7-0.4-0.9c-0.3-0.2-0.6-0.4-1-0.5s-0.8-0.3-1.2-0.4s-0.8-0.4-1.2-0.6c-0.4-0.3-0.7-0.6-1-1
		s-0.4-1-0.4-1.7c0-0.6,0.1-1.1,0.3-1.6s0.5-0.9,1-1.3s1-0.7,1.7-0.9s1.5-0.3,2.4-0.3c0.4,0,0.8,0,1.2,0.1c0.4,0,0.8,0.1,1.1,0.2
		l-0.2,2.5c-0.3-0.1-0.7-0.2-1.1-0.2c-0.4-0.1-0.8-0.1-1.2-0.1c-0.6,0-1.1,0.1-1.4,0.4c-0.3,0.2-0.4,0.5-0.4,0.9s0.1,0.6,0.4,0.8
		c0.3,0.2,0.6,0.4,1,0.5c0.4,0.2,0.8,0.3,1.3,0.5c0.4,0.2,0.9,0.4,1.3,0.6s0.7,0.6,1,1C140.6,21.7,140.7,22.2,140.7,22.9z"/>
</g>
</svg>
